P3
64 64
255
65 105 225
198 174 135
238 214 175
238 214 175
238 214 175
238 214 175
238 214 175
238 214 175
238 214 175
218 194 155
198 174 135
65 105 225
65 105 225
198 174 135
218 194 155
238 214 175
238 214 175
238 214 175
238 214 175
238 214 175
238 214 175
238 214 175
218 194 155
198 174 135
218 194 155
238 214 175
218 194 155
218 194 155
218 194 155
238 214 175
238 214 175
198 174 135
65 105 225
65 105 225
65 105 225
65 105 225
65 105 225
65 105 225
178 154 115
198 174 135
198 174 135
198 174 135
178 154 115
65 105 225
65 105 225
65 105 225
65 105 225
65 105 225
65 105 225
65 105 225
65 105 225
198 174 135
218 194 155
238 214 175
238 214 175
238 214 175
238 214 175
238 214 175
238 214 175
238 214 175
238 214 175
218 194 155
198 174 135
65 105 225
65 105 225
198 174 135
238 214 175
238 214 175
238 214 175
238 214 175
238 214 175
238 214 175
238 214 175
218 194 155
178 154 115
65 105 225
65 105 225
178 154 115
198 174 135
218 194 155
238 214 175
238 214 175
238 214 175
238 214 175
238 214 175
218 194 155
198 174 135
198 174 135
218 194 155
238 214 175
218 194 155
218 194 155
238 214 175
238 214 175
218 194 155
198 174 135
65 105 225
65 105 225
65 105 225
65 105 225
65 105 225
65 105 225
178 154 115
198 174 135
198 174 135
198 174 135
65 105 225
65 105 225
65 105 225
65 105 225
65 105 225
65 105 225
65 105 225
65 105 225
198 174 135
238 214 175
238 214 175
238 214 175
238 214 175
238 214 175
238 214 175
218 194 155
218 194 155
218 194 155
218 194 155
198 174 135
178 154 115
65 105 225
65 105 225
198 174 135
238 214 175
238 214 175
238 214 175
238 214 175
238 214 175
238 214 175
238 214 175
218 194 155
178 154 115
65 105 225
65 105 225
65 105 225
198 174 135
218 194 155
238 214 175
238 214 175
238 214 175
238 214 175
218 194 155
218 194 155
198 174 135
198 174 135
218 194 155
238 214 175
238 214 175
238 214 175
238 214 175
238 214 175
218 194 155
173 173 173
166 166 166
65 105 225
65 105 225
65 105 225
178 154 115
198 174 135
198 174 135
198 174 135
198 174 135
198 174 135
65 105 225
65 105 225
65 105 225
65 105 225
65 105 225
65 105 225
178 154 115
198 174 135
218 194 155
238 214 175
235 235 235
235 235 235
235 235 235
218 194 155
238 214 175
218 194 155
218 194 155
218 194 155
218 194 155
198 174 135
198 174 135
178 154 115
65 105 225
198 174 135
218 194 155
238 214 175
238 214 175
238 214 175
238 214 175
238 214 175
238 214 175
218 194 155
178 154 115
65 105 225
65 105 225
65 105 225
198 174 135
218 194 155
238 214 175
238 214 175
238 214 175
238 214 175
218 194 155
198 174 135
198 174 135
198 174 135
198 174 135
218 194 155
218 194 155
218 194 155
238 214 175
238 214 175
238 214 175
218 194 155
173 173 173
65 105 225
65 105 225
65 105 225
198 174 135
218 194 155
218 194 155
218 194 155
218 194 155
198 174 135
178 154 115
65 105 225
65 105 225
198 174 135
198 174 135
218 194 155
218 194 155
218 194 155
238 214 175
218 194 155
235 235 235
235 235 235
235 235 235
235 235 235
238 214 175
218 194 155
218 194 155
218 194 155
218 194 155
218 194 155
198 174 135
198 174 135
65 105 225
198 174 135
218 194 155
218 194 155
238 214 175
238 214 175
238 214 175
238 214 175
218 194 155
218 194 155
198 174 135
178 154 115
178 154 115
198 174 135
198 174 135
218 194 155
238 214 175
238 214 175
238 214 175
238 214 175
218 194 155
198 174 135
198 174 135
198 174 135
198 174 135
198 174 135
198 174 135
198 174 135
218 194 155
218 194 155
218 194 155
218 194 155
198 174 135
178 154 115
166 166 166
198 174 135
218 194 155
173 173 173
218 194 155
218 194 155
218 194 155
218 194 155
198 174 135
198 174 135
198 174 135
218 194 155
238 214 175
238 214 175
238 214 175
238 214 175
238 214 175
218 194 155
235 235 235
235 235 235
235 235 235
235 235 235
238 214 175
238 214 175
238 214 175
238 214 175
238 214 175
238 214 175
218 194 155
218 194 155
198 174 135
218 194 155
218 194 155
238 214 175
238 214 175
238 214 175
238 214 175
238 214 175
218 194 155
218 194 155
198 174 135
198 174 135
198 174 135
198 174 135
198 174 135
198 174 135
198 174 135
218 194 155
218 194 155
218 194 155
218 194 155
198 174 135
198 174 135
198 174 135
178 154 115
178 154 115
65 105 225
178 154 115
198 174 135
198 174 135
198 174 135
218 194 155
218 194 155
198 174 135
198 174 135
173 173 173
238 214 175
238 214 175
238 214 175
238 214 175
218 194 155
218 194 155
218 194 155
218 194 155
218 194 155
238 214 175
238 214 175
238 214 175
238 214 175
238 214 175
238 214 175
238 214 175
218 194 155
235 235 235
235 235 235
235 235 235
218 194 155
238 214 175
238 214 175
238 214 175
238 214 175
238 214 175
238 214 175
218 194 155
198 174 135
218 194 155
238 214 175
238 214 175
238 214 175
238 214 175
238 214 175
238 214 175
218 194 155
198 174 135
198 174 135
198 174 135
198 174 135
198 174 135
178 154 115
65 105 225
178 154 115
178 154 115
198 174 135
198 174 135
198 174 135
198 174 135
198 174 135
198 174 135
178 154 115
178 154 115
65 105 225
65 105 225
65 105 225
178 154 115
198 174 135
198 174 135
218 194 155
218 194 155
218 194 155
238 214 175
238 214 175
238 214 175
238 214 175
238 214 175
238 214 175
218 194 155
218 194 155
218 194 155
238 214 175
238 214 175
238 214 175
238 214 175
238 214 175
238 214 175
238 214 175
238 214 175
238 214 175
238 214 175
218 194 155
218 194 155
218 194 155
218 194 155
218 194 155
218 194 155
238 214 175
238 214 175
238 214 175
238 214 175
218 194 155
238 214 175
238 214 175
238 214 175
238 214 175
238 214 175
238 214 175
238 214 175
218 194 155
198 174 135
65 105 225
65 105 225
65 105 225
65 105 225
65 105 225
65 105 225
65 105 225
178 154 115
198 174 135
198 174 135
198 174 135
198 174 135
198 174 135
178 154 115
178 154 115
198 174 135
198 174 135
178 154 115
178 154 115
178 154 115
198 174 135
198 174 135
198 174 135
218 194 155
238 214 175
238 214 175
238 214 175
173 173 173
159 159 159
218 194 155
238 214 175
173 173 173
218 194 155
218 194 155
238 214 175
238 214 175
238 214 175
238 214 175
238 214 175
238 214 175
238 214 175
238 214 175
238 214 175
238 214 175
238 214 175
218 194 155
218 194 155
235 235 235
235 235 235
218 194 155
238 214 175
238 214 175
218 194 155
218 194 155
218 194 155
238 214 175
238 214 175
238 214 175
238 214 175
238 214 175
238 214 175
218 194 155
198 174 135
198 174 135
65 105 225
65 105 225
65 105 225
65 105 225
65 105 225
65 105 225
178 154 115
198 174 135
198 174 135
198 174 135
198 174 135
198 174 135
198 174 135
198 174 135
198 174 135
198 174 135
198 174 135
198 174 135
198 174 135
198 174 135
198 174 135
198 174 135
198 174 135
218 194 155
238 214 175
238 214 175
218 194 155
235 235 235
235 235 235
173 173 173
238 214 175
238 214 175
218 194 155
238 214 175
238 214 175
238 214 175
238 214 175
238 214 175
173 173 173
238 214 175
238 214 175
238 214 175
238 214 175
238 214 175
238 214 175
238 214 175
218 194 155
218 194 155
218 194 155
218 194 155
238 214 175
218 194 155
218 194 155
198 174 135
238 214 175
238 214 175
238 214 175
238 214 175
238 214 175
238 214 175
218 194 155
218 194 155
218 194 155
198 174 135
65 105 225
65 105 225
65 105 225
65 105 225
178 154 115
198 174 135
218 194 155
218 194 155
218 194 155
218 194 155
218 194 155
218 194 155
198 174 135
218 194 155
218 194 155
218 194 155
218 194 155
218 194 155
238 214 175
238 214 175
218 194 155
198 174 135
198 174 135
218 194 155
238 214 175
166 166 166
173 173 173
235 235 235
235 235 235
173 173 173
238 214 175
238 214 175
173 173 173
238 214 175
238 214 175
238 214 175
238 214 175
173 173 173
238 214 175
218 194 155
218 194 155
218 194 155
238 214 175
238 214 175
238 214 175
238 214 175
238 214 175
238 214 175
238 214 175
238 214 175
238 214 175
218 194 155
198 174 135
198 174 135
238 214 175
238 214 175
218 194 155
218 194 155
238 214 175
238 214 175
218 194 155
218 194 155
218 194 155
218 194 155
198 174 135
65 105 225
65 105 225
65 105 225
198 174 135
218 194 155
238 214 175
238 214 175
238 214 175
238 214 175
218 194 155
218 194 155
218 194 155
238 214 175
238 214 175
238 214 175
238 214 175
238 214 175
238 214 175
238 214 175
218 194 155
198 174 135
198 174 135
218 194 155
238 214 175
173 173 173
159 159 159
137 137 137
173 173 173
166 166 166
238 214 175
173 173 173
238 214 175
166 166 166
173 173 173
235 235 235
218 194 155
173 173 173
238 214 175
218 194 155
218 194 155
218 194 155
238 214 175
238 214 175
238 214 175
218 194 155
218 194 155
218 194 155
218 194 155
218 194 155
218 194 155
198 174 135
198 174 135
198 174 135
218 194 155
238 214 175
218 194 155
218 194 155
238 214 175
218 194 155
218 194 155
218 194 155
238 214 175
218 194 155
218 194 155
198 174 135
178 154 115
198 174 135
218 194 155
218 194 155
238 214 175
238 214 175
238 214 175
218 194 155
218 194 155
218 194 155
238 214 175
238 214 175
238 214 175
238 214 175
238 214 175
238 214 175
238 214 175
238 214 175
218 194 155
198 174 135
173 173 173
173 173 173
238 214 175
173 173 173
166 166 166
159 159 159
173 173 173
173 173 173
159 159 159
166 166 166
173 173 173
238 214 175
173 173 173
235 235 235
235 235 235
218 194 155
238 214 175
238 214 175
238 214 175
238 214 175
238 214 175
238 214 175
173 173 173
198 174 135
178 154 115
65 105 225
178 154 115
178 154 115
198 174 135
198 174 135
198 174 135
198 174 135
218 194 155
238 214 175
218 194 155
238 214 175
238 214 175
218 194 155
198 174 135
218 194 155
238 214 175
238 214 175
238 214 175
218 194 155
218 194 155
218 194 155
238 214 175
238 214 175
218 194 155
218 194 155
238 214 175
218 194 155
238 214 175
238 214 175
238 214 175
238 214 175
238 214 175
238 214 175
238 214 175
238 214 175
238 214 175
238 214 175
218 194 155
198 174 135
173 173 173
198 174 135
173 173 173
166 166 166
108 108 108
94 94 94
65 65 65
108 108 108
94 94 94
94 94 94
123 123 123
166 166 166
173 173 173
173 173 173
166 166 166
218 194 155
238 214 175
238 214 175
238 214 175
238 214 175
238 214 175
238 214 175
218 194 155
178 154 115
65 105 225
65 105 225
65 105 225
65 105 225
65 105 225
65 105 225
198 174 135
198 174 135
218 194 155
238 214 175
238 214 175
238 214 175
238 214 175
218 194 155
218 194 155
218 194 155
238 214 175
238 214 175
238 214 175
238 214 175
238 214 175
238 214 175
238 214 175
238 214 175
218 194 155
218 194 155
218 194 155
238 214 175
238 214 175
238 214 175
238 214 175
238 214 175
238 214 175
238 214 175
238 214 175
238 214 175
238 214 175
218 194 155
218 194 155
198 174 135
198 174 135
166 166 166
173 173 173
94 94 94
0 0 0
65 105 225
0 0 0
0 0 0
0 0 0
15 15 15
22 22 22
137 137 137
152 152 152
166 166 166
173 173 173
238 214 175
238 214 175
238 214 175
238 214 175
238 214 175
238 214 175
173 173 173
166 166 166
65 105 225
65 105 225
65 105 225
65 105 225
65 105 225
65 105 225
65 105 225
178 154 115
198 174 135
218 194 155
238 214 175
238 214 175
238 214 175
238 214 175
218 194 155
218 194 155
218 194 155
218 194 155
238 214 175
238 214 175
238 214 175
218 194 155
218 194 155
218 194 155
238 214 175
218 194 155
218 194 155
238 214 175
238 214 175
238 214 175
238 214 175
238 214 175
238 214 175
238 214 175
238 214 175
218 194 155
218 194 155
218 194 155
218 194 155
198 174 135
173 173 173
173 173 173
159 159 159
137 137 137
65 105 225
65 105 225
36 36 36
22 22 22
0 0 0
0 0 0
0 0 0
0 0 0
65 105 225
80 80 80
144 144 144
218 194 155
218 194 155
218 194 155
218 194 155
218 194 155
238 214 175
218 194 155
198 174 135
65 105 225
65 105 225
65 105 225
65 105 225
65 105 225
65 105 225
65 105 225
65 105 225
65 105 225
178 154 115
238 214 175
238 214 175
238 214 175
238 214 175
238 214 175
238 214 175
238 214 175
238 214 175
238 214 175
238 214 175
238 214 175
218 194 155
235 235 235
235 235 235
218 194 155
238 214 175
238 214 175
218 194 155
238 214 175
238 214 175
238 214 175
238 214 175
238 214 175
238 214 175
218 194 155
198 174 135
198 174 135
198 174 135
198 174 135
198 174 135
173 173 173
173 173 173
166 166 166
144 144 144
144 144 144
94 94 94
108 108 108
51 51 51
58 58 58
80 80 80
108 108 108
72 72 72
65 105 225
65 105 225
65 105 225
65 105 225
65 105 225
173 173 173
178 154 115
198 174 135
218 194 155
218 194 155
218 194 155
198 174 135
173 173 173
65 105 225
65 105 225
65 105 225
65 105 225
65 105 225
65 105 225
65 105 225
65 105 225
65 105 225
218 194 155
238 214 175
238 214 175
218 194 155
218 194 155
238 214 175
238 214 175
238 214 175
238 214 175
238 214 175
238 214 175
218 194 155
218 194 155
218 194 155
218 194 155
238 214 175
238 214 175
238 214 175
238 214 175
238 214 175
238 214 175
238 214 175
218 194 155
218 194 155
198 174 135
198 174 135
65 105 225
65 105 225
65 105 225
198 174 135
198 174 135
173 173 173
198 174 135
173 173 173
173 173 173
159 159 159
173 173 173
137 137 137
101 101 101
51 51 51
51 51 51
0 0 0
65 105 225
65 105 225
65 105 225
65 105 225
65 105 225
65 105 225
65 105 225
178 154 115
198 174 135
218 194 155
218 194 155
198 174 135
198 174 135
173 173 173
159 159 159
144 144 144
65 65 65
65 105 225
65 105 225
65 105 225
65 105 225
65 105 225
218 194 155
238 214 175
238 214 175
218 194 155
235 235 235
218 194 155
218 194 155
218 194 155
218 194 155
218 194 155
218 194 155
218 194 155
238 214 175
238 214 175
238 214 175
238 214 175
238 214 175
238 214 175
238 214 175
238 214 175
218 194 155
198 174 135
198 174 135
198 174 135
198 174 135
178 154 115
65 105 225
65 105 225
65 105 225
198 174 135
198 174 135
198 174 135
198 174 135
166 166 166
166 166 166
166 166 166
159 159 159
152 152 152
144 144 144
101 101 101
51 51 51
65 105 225
65 105 225
65 105 225
65 105 225
65 105 225
65 105 225
65 105 225
65 105 225
65 105 225
198 174 135
218 194 155
218 194 155
173 173 173
159 159 159
166 166 166
144 144 144
137 137 137
80 80 80
15 15 15
65 105 225
65 105 225
65 105 225
65 105 225
218 194 155
238 214 175
238 214 175
235 235 235
235 235 235
235 235 235
235 235 235
235 235 235
235 235 235
235 235 235
218 194 155
238 214 175
238 214 175
238 214 175
238 214 175
238 214 175
238 214 175
218 194 155
218 194 155
238 214 175
218 194 155
198 174 135
178 154 115
198 174 135
198 174 135
198 174 135
178 154 115
178 154 115
173 173 173
198 174 135
198 174 135
173 173 173
173 173 173
173 173 173
218 194 155
173 173 173
173 173 173
238 214 175
144 144 144
130 130 130
0 0 0
65 105 225
65 105 225
65 105 225
65 105 225
65 105 225
65 105 225
65 105 225
65 105 225
65 105 225
198 174 135
198 174 135
218 194 155
218 194 155
218 194 155
238 214 175
173 173 173
159 159 159
137 137 137
80 80 80
65 105 225
65 105 225
65 105 225
65 105 225
218 194 155
238 214 175
238 214 175
235 235 235
235 235 235
235 235 235
235 235 235
235 235 235
235 235 235
218 194 155
238 214 175
238 214 175
218 194 155
218 194 155
218 194 155
238 214 175
218 194 155
235 235 235
218 194 155
238 214 175
218 194 155
178 154 115
65 105 225
198 174 135
198 174 135
198 174 135
198 174 135
198 174 135
173 173 173
218 194 155
218 194 155
218 194 155
218 194 155
238 214 175
173 173 173
238 214 175
166 166 166
123 123 123
159 159 159
130 130 130
65 65 65
65 105 225
65 105 225
65 105 225
72 72 72
65 65 65
65 105 225
65 105 225
65 105 225
65 105 225
178 154 115
198 174 135
218 194 155
218 194 155
173 173 173
238 214 175
159 159 159
166 166 166
152 152 152
144 144 144
116 116 116
116 116 116
65 105 225
65 105 225
218 194 155
238 214 175
238 214 175
235 235 235
235 235 235
235 235 235
235 235 235
235 235 235
235 235 235
218 194 155
238 214 175
218 194 155
218 194 155
218 194 155
218 194 155
238 214 175
218 194 155
235 235 235
218 194 155
238 214 175
218 194 155
178 154 115
65 105 225
173 173 173
198 174 135
198 174 135
173 173 173
198 174 135
198 174 135
218 194 155
218 194 155
238 214 175
238 214 175
238 214 175
238 214 175
166 166 166
166 166 166
152 152 152
166 166 166
159 159 159
51 51 51
65 105 225
65 105 225
0 0 0
101 101 101
108 108 108
80 80 80
65 105 225
65 105 225
173 173 173
178 154 115
198 174 135
218 194 155
218 194 155
218 194 155
166 166 166
238 214 175
173 173 173
238 214 175
173 173 173
173 173 173
159 159 159
159 159 159
65 105 225
218 194 155
238 214 175
218 194 155
235 235 235
235 235 235
235 235 235
235 235 235
235 235 235
235 235 235
238 214 175
238 214 175
218 194 155
218 194 155
218 194 155
238 214 175
238 214 175
218 194 155
218 194 155
218 194 155
238 214 175
218 194 155
198 174 135
198 174 135
198 174 135
173 173 173
198 174 135
198 174 135
198 174 135
173 173 173
173 173 173
173 173 173
238 214 175
238 214 175
238 214 175
238 214 175
173 173 173
159 159 159
159 159 159
166 166 166
101 101 101
87 87 87
65 105 225
36 36 36
29 29 29
87 87 87
101 101 101
101 101 101
159 159 159
198 174 135
173 173 173
173 173 173
173 173 173
198 174 135
218 194 155
198 174 135
173 173 173
218 194 155
238 214 175
173 173 173
218 194 155
166 166 166
173 173 173
166 166 166
152 152 152
173 173 173
238 214 175
218 194 155
235 235 235
235 235 235
235 235 235
235 235 235
235 235 235
173 173 173
238 214 175
218 194 155
218 194 155
218 194 155
218 194 155
238 214 175
238 214 175
238 214 175
218 194 155
218 194 155
238 214 175
238 214 175
218 194 155
218 194 155
173 173 173
198 174 135
166 166 166
166 166 166
159 159 159
218 194 155
166 166 166
238 214 175
238 214 175
238 214 175
238 214 175
238 214 175
166 166 166
152 152 152
159 159 159
166 166 166
58 58 58
36 36 36
65 105 225
65 105 225
58 58 58
65 105 225
65 105 225
65 105 225
198 174 135
173 173 173
198 174 135
198 174 135
173 173 173
198 174 135
166 166 166
173 173 173
166 166 166
198 174 135
238 214 175
218 194 155
218 194 155
173 173 173
238 214 175
238 214 175
166 166 166
198 174 135
238 214 175
218 194 155
235 235 235
218 194 155
218 194 155
173 173 173
173 173 173
173 173 173
218 194 155
198 174 135
198 174 135
198 174 135
218 194 155
238 214 175
238 214 175
238 214 175
238 214 175
238 214 175
238 214 175
238 214 175
238 214 175
218 194 155
218 194 155
198 174 135
65 105 225
65 105 225
159 159 159
218 194 155
173 173 173
173 173 173
166 166 166
166 166 166
238 214 175
238 214 175
173 173 173
144 144 144
108 108 108
65 65 65
65 105 225
65 105 225
65 105 225
65 105 225
65 105 225
65 105 225
65 105 225
65 105 225
65 105 225
173 173 173
159 159 159
198 174 135
178 154 115
65 105 225
65 105 225
65 105 225
65 105 225
173 173 173
238 214 175
238 214 175
218 194 155
173 173 173
238 214 175
238 214 175
166 166 166
65 105 225
173 173 173
238 214 175
218 194 155
218 194 155
238 214 175
173 173 173
173 173 173
152 152 152
137 137 137
173 173 173
173 173 173
198 174 135
198 174 135
173 173 173
218 194 155
218 194 155
238 214 175
238 214 175
238 214 175
238 214 175
238 214 175
218 194 155
198 174 135
166 166 166
65 105 225
65 105 225
144 144 144
173 173 173
238 214 175
173 173 173
173 173 173
173 173 173
173 173 173
173 173 173
173 173 173
116 116 116
94 94 94
44 44 44
65 105 225
65 105 225
65 105 225
87 87 87
123 123 123
65 105 225
65 105 225
65 105 225
65 105 225
166 166 166
173 173 173
173 173 173
65 105 225
65 105 225
65 105 225
65 105 225
65 105 225
198 174 135
218 194 155
238 214 175
238 214 175
238 214 175
238 214 175
173 173 173
218 194 155
65 105 225
166 166 166
173 173 173
173 173 173
173 173 173
166 166 166
166 166 166
166 166 166
58 58 58
65 105 225
65 105 225
65 105 225
173 173 173
178 154 115
178 154 115
178 154 115
198 174 135
218 194 155
238 214 175
238 214 175
238 214 175
238 214 175
218 194 155
173 173 173
166 166 166
65 105 225
130 130 130
166 166 166
166 166 166
238 214 175
152 152 152
152 152 152
144 144 144
166 166 166
159 159 159
159 159 159
144 144 144
29 29 29
65 105 225
65 105 225
65 105 225
51 51 51
123 123 123
166 166 166
144 144 144
65 105 225
65 105 225
65 105 225
65 105 225
65 105 225
65 105 225
65 105 225
65 105 225
65 105 225
65 105 225
178 154 115
198 174 135
218 194 155
238 214 175
238 214 175
238 214 175
238 214 175
238 214 175
238 214 175
65 105 225
65 105 225
159 159 159
238 214 175
166 166 166
173 173 173
137 137 137
29 29 29
65 105 225
65 105 225
65 105 225
65 105 225
65 105 225
65 105 225
65 105 225
65 105 225
65 105 225
198 174 135
218 194 155
238 214 175
238 214 175
218 194 155
198 174 135
198 174 135
173 173 173
144 144 144
144 144 144
166 166 166
166 166 166
144 144 144
116 116 116
137 137 137
130 130 130
159 159 159
108 108 108
144 144 144
58 58 58
65 105 225
29 29 29
22 22 22
58 58 58
137 137 137
152 152 152
166 166 166
166 166 166
166 166 166
166 166 166
173 173 173
173 173 173
65 105 225
65 105 225
65 105 225
65 105 225
65 105 225
198 174 135
198 174 135
198 174 135
218 194 155
238 214 175
238 214 175
218 194 155
218 194 155
218 194 155
218 194 155
65 105 225
65 105 225
123 123 123
130 130 130
173 173 173
152 152 152
159 159 159
15 15 15
65 105 225
65 105 225
65 105 225
65 105 225
65 105 225
65 105 225
65 105 225
65 105 225
65 105 225
178 154 115
198 174 135
218 194 155
218 194 155
198 174 135
198 174 135
173 173 173
166 166 166
173 173 173
166 166 166
159 159 159
152 152 152
137 137 137
0 0 0
44 44 44
36 36 36
80 80 80
101 101 101
51 51 51
65 105 225
51 51 51
101 101 101
108 108 108
159 159 159
166 166 166
238 214 175
166 166 166
238 214 175
238 214 175
173 173 173
166 166 166
173 173 173
178 154 115
65 105 225
65 105 225
65 105 225
178 154 115
198 174 135
218 194 155
218 194 155
218 194 155
238 214 175
218 194 155
235 235 235
235 235 235
218 194 155
218 194 155
65 105 225
130 130 130
108 108 108
101 101 101
123 123 123
116 116 116
80 80 80
44 44 44
0 0 0
65 105 225
65 105 225
65 105 225
65 105 225
65 105 225
65 105 225
65 105 225
65 105 225
65 105 225
178 154 115
178 154 115
178 154 115
178 154 115
198 174 135
218 194 155
238 214 175
218 194 155
218 194 155
123 123 123
238 214 175
123 123 123
15 15 15
65 105 225
0 0 0
58 58 58
0 0 0
65 105 225
65 105 225
44 44 44
152 152 152
166 166 166
238 214 175
173 173 173
173 173 173
238 214 175
166 166 166
238 214 175
238 214 175
238 214 175
218 194 155
198 174 135
65 105 225
65 105 225
65 105 225
198 174 135
218 194 155
218 194 155
218 194 155
238 214 175
238 214 175
218 194 155
235 235 235
235 235 235
235 235 235
235 235 235
152 152 152
123 123 123
44 44 44
65 105 225
0 0 0
0 0 0
65 65 65
0 0 0
0 0 0
65 105 225
65 105 225
65 105 225
65 105 225
65 105 225
65 105 225
65 105 225
65 105 225
65 105 225
65 105 225
65 105 225
65 105 225
65 105 225
198 174 135
238 214 175
238 214 175
218 194 155
235 235 235
235 235 235
159 159 159
116 116 116
29 29 29
65 105 225
65 105 225
0 0 0
65 105 225
65 105 225
58 58 58
108 108 108
166 166 166
238 214 175
173 173 173
166 166 166
166 166 166
173 173 173
166 166 166
173 173 173
173 173 173
238 214 175
173 173 173
198 174 135
178 154 115
65 105 225
198 174 135
198 174 135
218 194 155
198 174 135
198 174 135
218 194 155
238 214 175
218 194 155
218 194 155
218 194 155
235 235 235
235 235 235
159 159 159
218 194 155
65 65 65
65 105 225
65 105 225
0 0 0
0 0 0
0 0 0
0 0 0
0 0 0
65 105 225
65 105 225
65 105 225
65 105 225
65 105 225
65 105 225
65 105 225
65 105 225
65 105 225
65 105 225
65 105 225
65 105 225
198 174 135
238 214 175
218 194 155
235 235 235
235 235 235
173 173 173
152 152 152
137 137 137
29 29 29
0 0 0
0 0 0
0 0 0
65 105 225
65 105 225
0 0 0
144 144 144
159 159 159
173 173 173
235 235 235
235 235 235
235 235 235
166 166 166
238 214 175
166 166 166
238 214 175
238 214 175
218 194 155
173 173 173
198 174 135
178 154 115
198 174 135
198 174 135
178 154 115
65 105 225
65 105 225
198 174 135
218 194 155
238 214 175
238 214 175
238 214 175
218 194 155
218 194 155
218 194 155
166 166 166
116 116 116
65 105 225
65 105 225
0 0 0
15 15 15
22 22 22
108 108 108
116 116 116
159 159 159
144 144 144
152 152 152
65 105 225
65 105 225
65 105 225
65 105 225
198 174 135
198 174 135
65 105 225
65 105 225
65 105 225
198 174 135
238 214 175
173 173 173
166 166 166
173 173 173
166 166 166
152 152 152
144 144 144
116 116 116
36 36 36
0 0 0
0 0 0
0 0 0
65 105 225
58 58 58
101 101 101
152 152 152
166 166 166
166 166 166
235 235 235
235 235 235
65 65 65
152 152 152
173 173 173
166 166 166
166 166 166
218 194 155
173 173 173
198 174 135
178 154 115
178 154 115
65 105 225
65 105 225
65 105 225
65 105 225
65 105 225
198 174 135
218 194 155
238 214 175
238 214 175
238 214 175
238 214 175
173 173 173
218 194 155
173 173 173
152 152 152
116 116 116
94 94 94
101 101 101
94 94 94
108 108 108
137 137 137
173 173 173
173 173 173
218 194 155
198 174 135
65 105 225
65 105 225
198 174 135
218 194 155
218 194 155
198 174 135
173 173 173
178 154 115
218 194 155
238 214 175
238 214 175
173 173 173
173 173 173
166 166 166
238 214 175
166 166 166
159 159 159
108 108 108
72 72 72
44 44 44
0 0 0
65 105 225
65 105 225
58 58 58
166 166 166
144 144 144
137 137 137
173 173 173
72 72 72
116 116 116
116 116 116
130 130 130
123 123 123
173 173 173
159 159 159
166 166 166
173 173 173
178 154 115
65 105 225
65 105 225
65 105 225
65 105 225
65 105 225
65 105 225
198 174 135
218 194 155
218 194 155
218 194 155
198 174 135
198 174 135
166 166 166
218 194 155
218 194 155
173 173 173
137 137 137
144 144 144
137 137 137
123 123 123
166 166 166
159 159 159
238 214 175
238 214 175
238 214 175
218 194 155
198 174 135
198 174 135
218 194 155
218 194 155
238 214 175
218 194 155
198 174 135
173 173 173
218 194 155
173 173 173
173 173 173
238 214 175
238 214 175
173 173 173
238 214 175
238 214 175
166 166 166
108 108 108
123 123 123
72 72 72
65 105 225
65 105 225
65 105 225
51 51 51
65 65 65
0 0 0
8 8 8
8 8 8
44 44 44
58 58 58
29 29 29
116 116 116
144 144 144
173 173 173
173 173 173
173 173 173
198 174 135
198 174 135
178 154 115
65 105 225
65 105 225
65 105 225
65 105 225
65 105 225
198 174 135
218 194 155
218 194 155
198 174 135
178 154 115
65 105 225
198 174 135
198 174 135
166 166 166
218 194 155
159 159 159
152 152 152
137 137 137
159 159 159
144 144 144
238 214 175
238 214 175
173 173 173
238 214 175
238 214 175
218 194 155
218 194 155
238 214 175
238 214 175
238 214 175
218 194 155
198 174 135
198 174 135
218 194 155
218 194 155
218 194 155
218 194 155
173 173 173
238 214 175
173 173 173
238 214 175
238 214 175
130 130 130
101 101 101
15 15 15
65 105 225
65 105 225
137 137 137
159 159 159
137 137 137
0 0 0
0 0 0
0 0 0
0 0 0
0 0 0
0 0 0
0 0 0
101 101 101
152 152 152
218 194 155
218 194 155
198 174 135
198 174 135
198 174 135
65 105 225
65 105 225
65 105 225
65 105 225
178 154 115
218 194 155
218 194 155
218 194 155
198 174 135
178 154 115
65 105 225
173 173 173
198 174 135
173 173 173
152 152 152
137 137 137
152 152 152
166 166 166
159 159 159
173 173 173
238 214 175
238 214 175
238 214 175
238 214 175
238 214 175
238 214 175
238 214 175
238 214 175
238 214 175
238 214 175
238 214 175
218 194 155
218 194 155
218 194 155
198 174 135
198 174 135
198 174 135
198 174 135
218 194 155
173 173 173
173 173 173
218 194 155
173 173 173
137 137 137
116 116 116
123 123 123
166 166 166
238 214 175
144 144 144
94 94 94
0 0 0
0 0 0
0 0 0
0 0 0
0 0 0
0 0 0
0 0 0
116 116 116
238 214 175
173 173 173
218 194 155
218 194 155
218 194 155
218 194 155
198 174 135
65 105 225
65 105 225
65 105 225
178 154 115
198 174 135
218 194 155
198 174 135
198 174 135
198 174 135
65 105 225
65 105 225
65 105 225
65 105 225
65 105 225
65 105 225
198 174 135
173 173 173
238 214 175
238 214 175
238 214 175
238 214 175
238 214 175
218 194 155
218 194 155
218 194 155
218 194 155
238 214 175
238 214 175
238 214 175
238 214 175
238 214 175
238 214 175
173 173 173
198 174 135
178 154 115
65 105 225
178 154 115
198 174 135
218 194 155
218 194 155
218 194 155
218 194 155
166 166 166
218 194 155
159 159 159
173 173 173
166 166 166
173 173 173
123 123 123
72 72 72
0 0 0
0 0 0
0 0 0
0 0 0
0 0 0
0 0 0
137 137 137
152 152 152
173 173 173
238 214 175
238 214 175
238 214 175
238 214 175
218 194 155
173 173 173
65 105 225
65 105 225
65 105 225
198 174 135
198 174 135
198 174 135
198 174 135
198 174 135
65 105 225
65 105 225
65 105 225
65 105 225
65 105 225
65 105 225
198 174 135
173 173 173
218 194 155
218 194 155
238 214 175
238 214 175
218 194 155
218 194 155
235 235 235
218 194 155
218 194 155
238 214 175
238 214 175
218 194 155
218 194 155
238 214 175
238 214 175
218 194 155
198 174 135
178 154 115
65 105 225
65 105 225
178 154 115
198 174 135
198 174 135
198 174 135
218 194 155
173 173 173
238 214 175
238 214 175
238 214 175
166 166 166
144 144 144
123 123 123
0 0 0
0 0 0
0 0 0
0 0 0
0 0 0
0 0 0
94 94 94
238 214 175
159 159 159
159 159 159
166 166 166
218 194 155
238 214 175
238 214 175
238 214 175
218 194 155
173 173 173
65 105 225
65 105 225
65 105 225
178 154 115
178 154 115
65 105 225
65 105 225
65 105 225
65 105 225
65 105 225
65 105 225
65 105 225
178 154 115
218 194 155
238 214 175
235 235 235
235 235 235
218 194 155
238 214 175
218 194 155
218 194 155
218 194 155
218 194 155
238 214 175
238 214 175
238 214 175
218 194 155
218 194 155
218 194 155
238 214 175
238 214 175
198 174 135
65 105 225
65 105 225
65 105 225
65 105 225
65 105 225
65 105 225
198 174 135
173 173 173
238 214 175
173 173 173
173 173 173
173 173 173
166 166 166
137 137 137
130 130 130
0 0 0
0 0 0
0 0 0
0 0 0
0 0 0
0 0 0
108 108 108
116 116 116
144 144 144
235 235 235
235 235 235
235 235 235
173 173 173
218 194 155
238 214 175
238 214 175
198 174 135
65 105 225
65 105 225
65 105 225
65 105 225
65 105 225
65 105 225
65 105 225
65 105 225
178 154 115
198 174 135
198 174 135
198 174 135
218 194 155
238 214 175
218 194 155
218 194 155
218 194 155
238 214 175
238 214 175
238 214 175
218 194 155
218 194 155
238 214 175
238 214 175
238 214 175
238 214 175
218 194 155
218 194 155
238 214 175
238 214 175
218 194 155
178 154 115
65 105 225
65 105 225
65 105 225
65 105 225
65 105 225
65 105 225
65 105 225
198 174 135
238 214 175
218 194 155
218 194 155
218 194 155
166 166 166
152 152 152
65 65 65
0 0 0
65 105 225
65 105 225
65 105 225
65 105 225
0 0 0
58 58 58
173 173 173
144 144 144
235 235 235
235 235 235
235 235 235
235 235 235
173 173 173
166 166 166
238 214 175
218 194 155
65 105 225
65 105 225
65 105 225
65 105 225
65 105 225
65 105 225
65 105 225
65 105 225
218 194 155
218 194 155
218 194 155
218 194 155
218 194 155
238 214 175
238 214 175
238 214 175
238 214 175
238 214 175
238 214 175
238 214 175
238 214 175
238 214 175
238 214 175
238 214 175
238 214 175
238 214 175
218 194 155
218 194 155
238 214 175
218 194 155
198 174 135
65 105 225
65 105 225
65 105 225
178 154 115
198 174 135
65 105 225
65 105 225
65 105 225
178 154 115
218 194 155
238 214 175
218 194 155
238 214 175
173 173 173
173 173 173
137 137 137
0 0 0
65 105 225
65 105 225
65 105 225
65 105 225
0 0 0
116 116 116
152 152 152
144 144 144
235 235 235
235 235 235
235 235 235
235 235 235
144 144 144
166 166 166
166 166 166
173 173 173
178 154 115
65 105 225
65 105 225
65 105 225
65 105 225
65 105 225
65 105 225
65 105 225
218 194 155
218 194 155
218 194 155
218 194 155
218 194 155
238 214 175
238 214 175
238 214 175
238 214 175
218 194 155
238 214 175
238 214 175
218 194 155
218 194 155
238 214 175
238 214 175
218 194 155
218 194 155
218 194 155
238 214 175
238 214 175
218 194 155
178 154 115
65 105 225
65 105 225
178 154 115
198 174 135
218 194 155
198 174 135
65 105 225
65 105 225
65 105 225
198 174 135
238 214 175
238 214 175
238 214 175
238 214 175
159 159 159
152 152 152
116 116 116
65 105 225
65 105 225
65 105 225
65 105 225
101 101 101
137 137 137
144 144 144
152 152 152
152 152 152
166 166 166
159 159 159
152 152 152
144 144 144
166 166 166
173 173 173
218 194 155
178 154 115
65 105 225
65 105 225
65 105 225
65 105 225
65 105 225
65 105 225
65 105 225
218 194 155
218 194 155
218 194 155
218 194 155
218 194 155
238 214 175
238 214 175
238 214 175
218 194 155
218 194 155
238 214 175
238 214 175
218 194 155
235 235 235
235 235 235
218 194 155
218 194 155
235 235 235
218 194 155
238 214 175
218 194 155
198 174 135
178 154 115
178 154 115
178 154 115
198 174 135
218 194 155
238 214 175
218 194 155
198 174 135
198 174 135
198 174 135
218 194 155
218 194 155
238 214 175
238 214 175
218 194 155
218 194 155
166 166 166
198 174 135
65 105 225
65 105 225
65 105 225
130 130 130
152 152 152
152 152 152
159 159 159
159 159 159
173 173 173
166 166 166
173 173 173
159 159 159
238 214 175
159 159 159
238 214 175
173 173 173
173 173 173
65 105 225
65 105 225
65 105 225
65 105 225
65 105 225
65 105 225
65 105 225
218 194 155
218 194 155
218 194 155
238 214 175
238 214 175
238 214 175
238 214 175
238 214 175
238 214 175
218 194 155
238 214 175
238 214 175
218 194 155
235 235 235
235 235 235
235 235 235
235 235 235
218 194 155
238 214 175
238 214 175
198 174 135
198 174 135
198 174 135
198 174 135
218 194 155
218 194 155
238 214 175
238 214 175
238 214 175
238 214 175
238 214 175
238 214 175
218 194 155
218 194 155
238 214 175
218 194 155
218 194 155
218 194 155
218 194 155
198 174 135
116 116 116
144 144 144
173 173 173
159 159 159
144 144 144
166 166 166
159 159 159
159 159 159
166 166 166
166 166 166
238 214 175
238 214 175
159 159 159
238 214 175
218 194 155
198 174 135
178 154 115
65 105 225
65 105 225
65 105 225
65 105 225
178 154 115
198 174 135
178 154 115
238 214 175
238 214 175
238 214 175
238 214 175
238 214 175
218 194 155
218 194 155
238 214 175
238 214 175
238 214 175
218 194 155
238 214 175
238 214 175
218 194 155
218 194 155
218 194 155
218 194 155
238 214 175
238 214 175
218 194 155
198 174 135
198 174 135
218 194 155
238 214 175
238 214 175
238 214 175
238 214 175
238 214 175
238 214 175
238 214 175
238 214 175
238 214 175
238 214 175
238 214 175
238 214 175
238 214 175
238 214 175
238 214 175
218 194 155
218 194 155
173 173 173
173 173 173
166 166 166
238 214 175
166 166 166
159 159 159
173 173 173
166 166 166
159 159 159
238 214 175
159 159 159
173 173 173
238 214 175
218 194 155
173 173 173
178 154 115
178 154 115
65 105 225
178 154 115
198 174 135
218 194 155
218 194 155
218 194 155
198 174 135
238 214 175
218 194 155
218 194 155
218 194 155
235 235 235
235 235 235
218 194 155
218 194 155
238 214 175
218 194 155
198 174 135
198 174 135
218 194 155
238 214 175
238 214 175
238 214 175
238 214 175
238 214 175
218 194 155
198 174 135
198 174 135
218 194 155
238 214 175
218 194 155
218 194 155
238 214 175
238 214 175
218 194 155
218 194 155
238 214 175
238 214 175
238 214 175
238 214 175
238 214 175
238 214 175
238 214 175
238 214 175
238 214 175
238 214 175
173 173 173
173 173 173
238 214 175
238 214 175
166 166 166
235 235 235
235 235 235
159 159 159
166 166 166
173 173 173
238 214 175
173 173 173
238 214 175
238 214 175
173 173 173
198 174 135
178 154 115
178 154 115
198 174 135
218 194 155
238 214 175
238 214 175
238 214 175
238 214 175
218 194 155
218 194 155
235 235 235
235 235 235
235 235 235
235 235 235
235 235 235
218 194 155
238 214 175
238 214 175
218 194 155
198 174 135
65 105 225
178 154 115
198 174 135
218 194 155
218 194 155
218 194 155
218 194 155
218 194 155
218 194 155
218 194 155
238 214 175
218 194 155
218 194 155
218 194 155
238 214 175
238 214 175
238 214 175
238 214 175
238 214 175
238 214 175
218 194 155
218 194 155
218 194 155
218 194 155
238 214 175
238 214 175
238 214 175
238 214 175
238 214 175
238 214 175
238 214 175
173 173 173
218 194 155
235 235 235
235 235 235
235 235 235
238 214 175
173 173 173
218 194 155
218 194 155
173 173 173
166 166 166
173 173 173
178 154 115
178 154 115
198 174 135
218 194 155
238 214 175
238 214 175
238 214 175
238 214 175
238 214 175
218 194 155
238 214 175
235 235 235
235 235 235
235 235 235
235 235 235
218 194 155
238 214 175
238 214 175
218 194 155
198 174 135
178 154 115
65 105 225
65 105 225
65 105 225
65 105 225
178 154 115
178 154 115
198 174 135
218 194 155
218 194 155
238 214 175
238 214 175
218 194 155
218 194 155
238 214 175
238 214 175
238 214 175
238 214 175
238 214 175
218 194 155
218 194 155
198 174 135
198 174 135
178 154 115
198 174 135
218 194 155
238 214 175
238 214 175
238 214 175
238 214 175
218 194 155
218 194 155
218 194 155
235 235 235
235 235 235
235 235 235
235 235 235
218 194 155
238 214 175
159 159 159
198 174 135
173 173 173
198 174 135
198 174 135
178 154 115
178 154 115
198 174 135
218 194 155
238 214 175
238 214 175
238 214 175
238 214 175
238 214 175
238 214 175
218 194 155
238 214 175
218 194 155
218 194 155
218 194 155
238 214 175
238 214 175
238 214 175
218 194 155
178 154 115
65 105 225
65 105 225
65 105 225
65 105 225
65 105 225
65 105 225
65 105 225
178 154 115
218 194 155
238 214 175
238 214 175
238 214 175
238 214 175
238 214 175
238 214 175
238 214 175
238 214 175
238 214 175
238 214 175
218 194 155
198 174 135
65 105 225
65 105 225
65 105 225
65 105 225
198 174 135
218 194 155
238 214 175
238 214 175
238 214 175
218 194 155
218 194 155
218 194 155
218 194 155
235 235 235
235 235 235
235 235 235
218 194 155
238 214 175
173 173 173
65 105 225
65 105 225
65 105 225
65 105 225
65 105 225
65 105 225
178 154 115
198 174 135
218 194 155
238 214 175
218 194 155
218 194 155
238 214 175
238 214 175
65 105 225
218 194 155
238 214 175
238 214 175
218 194 155
218 194 155
238 214 175
238 214 175
198 174 135
65 105 225
65 105 225
65 105 225
65 105 225
65 105 225
65 105 225
65 105 225
65 105 225
178 154 115
218 194 155
238 214 175
238 214 175
238 214 175
238 214 175
238 214 175
238 214 175
238 214 175
238 214 175
238 214 175
238 214 175
198 174 135
178 154 115
65 105 225
65 105 225
65 105 225
65 105 225
198 174 135
218 194 155
238 214 175
238 214 175
238 214 175
238 214 175
238 214 175
238 214 175
238 214 175
218 194 155
218 194 155
218 194 155
238 214 175
218 194 155
178 154 115
65 105 225
65 105 225
65 105 225
65 105 225
65 105 225
65 105 225
178 154 115
198 174 135
238 214 175
238 214 175
218 194 155
218 194 155
218 194 155
218 194 155
65 105 225
178 154 115
218 194 155
238 214 175
238 214 175
218 194 155
218 194 155
238 214 175
198 174 135
65 105 225
65 105 225
65 105 225
178 154 115
178 154 115
65 105 225
65 105 225
65 105 225
178 154 115
218 194 155
238 214 175
238 214 175
238 214 175
238 214 175
238 214 175
238 214 175
238 214 175
238 214 175
238 214 175
238 214 175
198 174 135
65 105 225
65 105 225
65 105 225
65 105 225
65 105 225
198 174 135
238 214 175
238 214 175
238 214 175
238 214 175
238 214 175
238 214 175
238 214 175
238 214 175
238 214 175
238 214 175
238 214 175
218 194 155
198 174 135
65 105 225
65 105 225
65 105 225
65 105 225
65 105 225
65 105 225
65 105 225
198 174 135
218 194 155
238 214 175
218 194 155
218 194 155
218 194 155
218 194 155
218 194 155
65 105 225
65 105 225
178 154 115
218 194 155
238 214 175
218 194 155
218 194 155
238 214 175
218 194 155
198 174 135
198 174 135
198 174 135
218 194 155
218 194 155
198 174 135
65 105 225
65 105 225
198 174 135
218 194 155
238 214 175
238 214 175
218 194 155
218 194 155
218 194 155
218 194 155
218 194 155
218 194 155
238 214 175
238 214 175
198 174 135
65 105 225
65 105 225
65 105 225
65 105 225
178 154 115
218 194 155
238 214 175
238 214 175
238 214 175
238 214 175
238 214 175
238 214 175
238 214 175
238 214 175
238 214 175
238 214 175
218 194 155
178 154 115
65 105 225
65 105 225
65 105 225
65 105 225
65 105 225
65 105 225
65 105 225
198 174 135
218 194 155
238 214 175
238 214 175
218 194 155
218 194 155
218 194 155
238 214 175
218 194 155
65 105 225
65 105 225
65 105 225
178 154 115
218 194 155
238 214 175
238 214 175
238 214 175
238 214 175
218 194 155
238 214 175
238 214 175
238 214 175
238 214 175
218 194 155
218 194 155
218 194 155
218 194 155
238 214 175
238 214 175
238 214 175
218 194 155
235 235 235
235 235 235
235 235 235
235 235 235
218 194 155
238 214 175
218 194 155
178 154 115
65 105 225
65 105 225
65 105 225
65 105 225
198 174 135
238 214 175
238 214 175
238 214 175
238 214 175
238 214 175
238 214 175
238 214 175
238 214 175
238 214 175
238 214 175
218 194 155
198 174 135
65 105 225
65 105 225
65 105 225
65 105 225
65 105 225
65 105 225
178 154 115
198 174 135
218 194 155
218 194 155
238 214 175
238 214 175
238 214 175
238 214 175
238 214 175
238 214 175
238 214 175
65 105 225
65 105 225
65 105 225
65 105 225
178 154 115
218 194 155
238 214 175
238 214 175
238 214 175
238 214 175
238 214 175
218 194 155
218 194 155
218 194 155
238 214 175
238 214 175
238 214 175
238 214 175
238 214 175
238 214 175
238 214 175
238 214 175
218 194 155
235 235 235
235 235 235
218 194 155
218 194 155
238 214 175
218 194 155
178 154 115
65 105 225
65 105 225
65 105 225
178 154 115
198 174 135
238 214 175
238 214 175
238 214 175
238 214 175
238 214 175
238 214 175
238 214 175
238 214 175
238 214 175
238 214 175
218 194 155
178 154 115
65 105 225
65 105 225
65 105 225
65 105 225
198 174 135
198 174 135
218 194 155
238 214 175
238 214 175
238 214 175
238 214 175
238 214 175
238 214 175
238 214 175
218 194 155
218 194 155
218 194 155
178 154 115
65 105 225
65 105 225
65 105 225
65 105 225
198 174 135
218 194 155
238 214 175
238 214 175
238 214 175
238 214 175
218 194 155
218 194 155
218 194 155
238 214 175
218 194 155
218 194 155
218 194 155
238 214 175
218 194 155
198 174 135
218 194 155
238 214 175
238 214 175
238 214 175
238 214 175
238 214 175
238 214 175
218 194 155
198 174 135
65 105 225
178 154 115
198 174 135
198 174 135
218 194 155
218 194 155
218 194 155
238 214 175
238 214 175
238 214 175
238 214 175
238 214 175
238 214 175
238 214 175
238 214 175
218 194 155
178 154 115
65 105 225
65 105 225
178 154 115
198 174 135
218 194 155
238 214 175
238 214 175
238 214 175
218 194 155
238 214 175
238 214 175
218 194 155
218 194 155
218 194 155
218 194 155
218 194 155
198 174 135
218 194 155
198 174 135
65 105 225
65 105 225
65 105 225
178 154 115
198 174 135
218 194 155
238 214 175
238 214 175
238 214 175
238 214 175
218 194 155
238 214 175
238 214 175
218 194 155
218 194 155
218 194 155
238 214 175
218 194 155
178 154 115
178 154 115
198 174 135
218 194 155
218 194 155
218 194 155
218 194 155
198 174 135
198 174 135
198 174 135
198 174 135
198 174 135
198 174 135
218 194 155
218 194 155
218 194 155
218 194 155
238 214 175
238 214 175
238 214 175
238 214 175
238 214 175
238 214 175
238 214 175
218 194 155
218 194 155
198 174 135
198 174 135
198 174 135
218 194 155
238 214 175
238 214 175
238 214 175
218 194 155
218 194 155
235 235 235
218 194 155
238 214 175
198 174 135
198 174 135
198 174 135
198 174 135
198 174 135
198 174 135
218 194 155
198 174 135
178 154 115
65 105 225
65 105 225
173 173 173
198 174 135
218 194 155
238 214 175
238 214 175
238 214 175
238 214 175
238 214 175
238 214 175
238 214 175
238 214 175
238 214 175
238 214 175
238 214 175
198 174 135
65 105 225
65 105 225
65 105 225
178 154 115
198 174 135
198 174 135
178 154 115
65 105 225
65 105 225
178 154 115
198 174 135
198 174 135
198 174 135
198 174 135
218 194 155
218 194 155
218 194 155
238 214 175
238 214 175
238 214 175
238 214 175
238 214 175
218 194 155
218 194 155
218 194 155
218 194 155
218 194 155
218 194 155
218 194 155
238 214 175
238 214 175
218 194 155
218 194 155
235 235 235
235 235 235
218 194 155
238 214 175
218 194 155
178 154 115
65 105 225
178 154 115
178 154 115
178 154 115
178 154 115
218 194 155
198 174 135
178 154 115
178 154 115
198 174 135
198 174 135
198 174 135
218 194 155
218 194 155
218 194 155
218 194 155
238 214 175
238 214 175
238 214 175
238 214 175
238 214 175
238 214 175
238 214 175
218 194 155
178 154 115
65 105 225
65 105 225
65 105 225
65 105 225
178 154 115
178 154 115
65 105 225
65 105 225
65 105 225
65 105 225
178 154 115
198 174 135
198 174 135
198 174 135
198 174 135
218 194 155
218 194 155
238 214 175
238 214 175
238 214 175
238 214 175
218 194 155
218 194 155
198 174 135
198 174 135
198 174 135
218 194 155
218 194 155
218 194 155
238 214 175
218 194 155
235 235 235
235 235 235
235 235 235
235 235 235
218 194 155
238 214 175
198 174 135
65 105 225
65 105 225
65 105 225
65 105 225
65 105 225
178 154 115
218 194 155
198 174 135
198 174 135
198 174 135
198 174 135
198 174 135
198 174 135
198 174 135
198 174 135
198 174 135
198 174 135
218 194 155
238 214 175
238 214 175
238 214 175
238 214 175
238 214 175
218 194 155
198 174 135
65 105 225
65 105 225
65 105 225
65 105 225
65 105 225
178 154 115
178 154 115
65 105 225
65 105 225
65 105 225
65 105 225
65 105 225
178 154 115
178 154 115
178 154 115
198 174 135
218 194 155
238 214 175
238 214 175
238 214 175
238 214 175
218 194 155
198 174 135
198 174 135
198 174 135
198 174 135
198 174 135
218 194 155
218 194 155
218 194 155
238 214 175
238 214 175
218 194 155
235 235 235
235 235 235
218 194 155
238 214 175
218 194 155
198 174 135
65 105 225
65 105 225
65 105 225
65 105 225
65 105 225
198 174 135
238 214 175
238 214 175
238 214 175
238 214 175
238 214 175
218 194 155
198 174 135
65 105 225
65 105 225
65 105 225
178 154 115
198 174 135
218 194 155
238 214 175
238 214 175
238 214 175
238 214 175
218 194 155
178 154 115
65 105 225
65 105 225
65 105 225
178 154 115
198 174 135
198 174 135
198 174 135
198 174 135
65 105 225
65 105 225
65 105 225
65 105 225
65 105 225
178 154 115
198 174 135
198 174 135
238 214 175
238 214 175
238 214 175
238 214 175
218 194 155
198 174 135
198 174 135
198 174 135
198 174 135
198 174 135
198 174 135
198 174 135
218 194 155
218 194 155
238 214 175
238 214 175
218 194 155
218 194 155
218 194 155
218 194 155
238 214 175
218 194 155
198 174 135
65 105 225
65 105 225
65 105 225
65 105 225
178 154 115
198 174 135
238 214 175
238 214 175
238 214 175
238 214 175
238 214 175
218 194 155
65 105 225
65 105 225
65 105 225
65 105 225
65 105 225
65 105 225
198 174 135
218 194 155
238 214 175
238 214 175
238 214 175
218 194 155
198 174 135
178 154 115
198 174 135
198 174 135
218 194 155
198 174 135
198 174 135
198 174 135
198 174 135
178 154 115
65 105 225
65 105 225
65 105 225
65 105 225
178 154 115
198 174 135
218 194 155
238 214 175
238 214 175
238 214 175
238 214 175
218 194 155
198 174 135
198 174 135
198 174 135
198 174 135
178 154 115
198 174 135
218 194 155
238 214 175
238 214 175
238 214 175
238 214 175
238 214 175
218 194 155
218 194 155
238 214 175
238 214 175
218 194 155
198 174 135
178 154 115
65 105 225
65 105 225
178 154 115
198 174 135
238 214 175
238 214 175
218 194 155
218 194 155
218 194 155
238 214 175
198 174 135
65 105 225
65 105 225
65 105 225
65 105 225
65 105 225
65 105 225
65 105 225
198 174 135
238 214 175
238 214 175
238 214 175
238 214 175
218 194 155
218 194 155
238 214 175
238 214 175
238 214 175
238 214 175
218 194 155
198 174 135
198 174 135
178 154 115
65 105 225
65 105 225
65 105 225
65 105 225
178 154 115
218 194 155
238 214 175
238 214 175
238 214 175
238 214 175
218 194 155
198 174 135
178 154 115
178 154 115
178 154 115
178 154 115
198 174 135
198 174 135
218 194 155
238 214 175
238 214 175
238 214 175
238 214 175
238 214 175
218 194 155
218 194 155
238 214 175
238 214 175
218 194 155
198 174 135
178 154 115
65 105 225
65 105 225
198 174 135
218 194 155
238 214 175
238 214 175
218 194 155
218 194 155
218 194 155
238 214 175
198 174 135
65 105 225
65 105 225
65 105 225
65 105 225
65 105 225
65 105 225
65 105 225
178 154 115
218 194 155
238 214 175
238 214 175
238 214 175
238 214 175
238 214 175
238 214 175
218 194 155
218 194 155
238 214 175
238 214 175
198 174 135
178 154 115
65 105 225
65 105 225
65 105 225
65 105 225
65 105 225
198 174 135
218 194 155
238 214 175
238 214 175
238 214 175
238 214 175
218 194 155
198 174 135
65 105 225
65 105 225
65 105 225
65 105 225
198 174 135
218 194 155
238 214 175
238 214 175
238 214 175
238 214 175
238 214 175
238 214 175
218 194 155
218 194 155
238 214 175
238 214 175
218 194 155
198 174 135
178 154 115
178 154 115
198 174 135
218 194 155
238 214 175
238 214 175
238 214 175
238 214 175
218 194 155
218 194 155
238 214 175
198 174 135
65 105 225
65 105 225
65 105 225
178 154 115
178 154 115
65 105 225
65 105 225
178 154 115
218 194 155
238 214 175
238 214 175
238 214 175
238 214 175
238 214 175
218 194 155
235 235 235
235 235 235
218 194 155
238 214 175
218 194 155
178 154 115
65 105 225
65 105 225
65 105 225
65 105 225
178 154 115
218 194 155
238 214 175
238 214 175
238 214 175
238 214 175
218 194 155
218 194 155
198 174 135
65 105 225
65 105 225
65 105 225
65 105 225
178 154 115
218 194 155
238 214 175
218 194 155
238 214 175
238 214 175
238 214 175
238 214 175
238 214 175
238 214 175
238 214 175
218 194 155
198 174 135
198 174 135
198 174 135
198 174 135
218 194 155
238 214 175
238 214 175
218 194 155
