P3
16 16
255
65 105 225
178 154 115
218 194 155
238 214 175
238 214 175
238 214 175
238 214 175
162 162 162
171 171 171
238 214 175
153 153 153
126 126 126
65 105 225
153 153 153
153 153 153
153 153 153
65 105 225
178 154 115
218 194 155
238 214 175
238 214 175
238 214 175
238 214 175
238 214 175
238 214 175
238 214 175
144 144 144
65 105 225
65 105 225
65 105 225
153 153 153
126 126 126
65 105 225
178 154 115
218 194 155
238 214 175
238 214 175
238 214 175
238 214 175
238 214 175
238 214 175
218 194 155
162 162 162
65 105 225
65 105 225
65 105 225
36 36 36
117 117 117
65 105 225
178 154 115
218 194 155
238 214 175
238 214 175
238 214 175
238 214 175
238 214 175
238 214 175
218 194 155
198 174 135
65 105 225
65 105 225
65 105 225
117 117 117
162 162 162
65 105 225
178 154 115
198 174 135
218 194 155
238 214 175
238 214 175
238 214 175
238 214 175
238 214 175
171 171 171
162 162 162
198 174 135
153 153 153
144 144 144
171 171 171
162 162 162
178 154 115
198 174 135
218 194 155
218 194 155
238 214 175
238 214 175
238 214 175
238 214 175
238 214 175
171 171 171
171 171 171
171 171 171
162 162 162
171 171 171
153 153 153
162 162 162
198 174 135
218 194 155
218 194 155
238 214 175
238 214 175
238 214 175
238 214 175
238 214 175
238 214 175
218 194 155
162 162 162
171 171 171
171 171 171
162 162 162
135 135 135
135 135 135
198 174 135
218 194 155
238 214 175
238 214 175
238 214 175
238 214 175
238 214 175
238 214 175
218 194 155
162 162 162
162 162 162
162 162 162
65 105 225
65 105 225
65 105 225
65 105 225
218 194 155
238 214 175
238 214 175
171 171 171
171 171 171
238 214 175
171 171 171
171 171 171
162 162 162
171 171 171
65 105 225
65 105 225
65 105 225
65 105 225
65 105 225
65 105 225
218 194 155
238 214 175
238 214 175
238 214 175
171 171 171
171 171 171
238 214 175
171 171 171
218 194 155
162 162 162
65 105 225
65 105 225
65 105 225
65 105 225
65 105 225
63 63 63
218 194 155
238 214 175
238 214 175
218 194 155
238 214 175
238 214 175
218 194 155
218 194 155
218 194 155
171 171 171
162 162 162
65 105 225
65 105 225
65 105 225
18 18 18
99 99 99
218 194 155
238 214 175
218 194 155
218 194 155
171 171 171
238 214 175
218 194 155
171 171 171
171 171 171
171 171 171
162 162 162
90 90 90
65 105 225
0 0 0
108 108 108
126 126 126
198 174 135
238 214 175
218 194 155
218 194 155
238 214 175
218 194 155
171 171 171
218 194 155
171 171 171
238 214 175
162 162 162
171 171 171
117 117 117
135 135 135
135 135 135
153 153 153
198 174 135
238 214 175
238 214 175
238 214 175
238 214 175
218 194 155
198 174 135
171 171 171
171 171 171
238 214 175
238 214 175
171 171 171
238 214 175
162 162 162
144 144 144
238 214 175
218 194 155
238 214 175
238 214 175
238 214 175
238 214 175
218 194 155
218 194 155
218 194 155
218 194 155
238 214 175
238 214 175
238 214 175
218 194 155
153 153 153
171 171 171
171 171 171
218 194 155
238 214 175
238 214 175
238 214 175
238 214 175
238 214 175
238 214 175
238 214 175
238 214 175
238 214 175
162 162 162
238 214 175
218 194 155
235 235 235
218 194 155
238 214 175
