P3
16 16
255
218 194 155
198 174 135
65 105 225
65 105 225
65 105 225
65 105 225
65 105 225
65 105 225
65 105 225
108 108 108
117 117 117
126 126 126
144 144 144
171 171 171
162 162 162
218 194 155
198 174 135
178 154 115
65 105 225
65 105 225
65 105 225
65 105 225
65 105 225
65 105 225
126 126 126
126 126 126
90 90 90
126 126 126
153 153 153
162 162 162
153 153 153
238 214 175
198 174 135
198 174 135
65 105 225
65 105 225
65 105 225
65 105 225
65 105 225
126 126 126
198 174 135
162 162 162
117 117 117
153 153 153
72 72 72
218 194 155
162 162 162
238 214 175
218 194 155
218 194 155
198 174 135
171 171 171
135 135 135
90 90 90
126 126 126
99 99 99
171 171 171
144 144 144
144 144 144
90 90 90
63 63 63
135 135 135
171 171 171
238 214 175
238 214 175
218 194 155
218 194 155
218 194 155
171 171 171
153 153 153
117 117 117
135 135 135
126 126 126
153 153 153
171 171 171
144 144 144
162 162 162
162 162 162
218 194 155
238 214 175
238 214 175
238 214 175
238 214 175
238 214 175
238 214 175
162 162 162
153 153 153
218 194 155
135 135 135
144 144 144
135 135 135
218 194 155
171 171 171
238 214 175
238 214 175
238 214 175
238 214 175
238 214 175
238 214 175
171 171 171
238 214 175
238 214 175
171 171 171
238 214 175
162 162 162
135 135 135
144 144 144
162 162 162
135 135 135
238 214 175
238 214 175
238 214 175
218 194 155
238 214 175
238 214 175
238 214 175
218 194 155
218 194 155
218 194 155
162 162 162
218 194 155
162 162 162
162 162 162
162 162 162
171 171 171
171 171 171
238 214 175
238 214 175
218 194 155
238 214 175
238 214 175
238 214 175
218 194 155
218 194 155
218 194 155
238 214 175
238 214 175
238 214 175
171 171 171
171 171 171
171 171 171
171 171 171
238 214 175
238 214 175
238 214 175
238 214 175
238 214 175
238 214 175
238 214 175
218 194 155
218 194 155
238 214 175
238 214 175
171 171 171
238 214 175
238 214 175
238 214 175
238 214 175
218 194 155
218 194 155
238 214 175
238 214 175
171 171 171
238 214 175
238 214 175
238 214 175
238 214 175
238 214 175
238 214 175
171 171 171
218 194 155
171 171 171
238 214 175
218 194 155
198 174 135
198 174 135
238 214 175
238 214 175
238 214 175
238 214 175
238 214 175
238 214 175
238 214 175
238 214 175
171 171 171
218 194 155
218 194 155
171 171 171
238 214 175
218 194 155
198 174 135
198 174 135
218 194 155
238 214 175
238 214 175
238 214 175
238 214 175
238 214 175
238 214 175
238 214 175
238 214 175
171 171 171
235 235 235
218 194 155
238 214 175
218 194 155
198 174 135
198 174 135
235 235 235
235 235 235
218 194 155
238 214 175
238 214 175
238 214 175
238 214 175
238 214 175
238 214 175
218 194 155
218 194 155
218 194 155
238 214 175
218 194 155
218 194 155
198 174 135
235 235 235
235 235 235
218 194 155
238 214 175
238 214 175
238 214 175
238 214 175
238 214 175
238 214 175
238 214 175
218 194 155
238 214 175
238 214 175
238 214 175
218 194 155
198 174 135
235 235 235
235 235 235
218 194 155
238 214 175
238 214 175
238 214 175
238 214 175
238 214 175
238 214 175
238 214 175
238 214 175
238 214 175
238 214 175
238 214 175
238 214 175
218 194 155
